<svg width="216" height="63" viewBox="0 0 216 63" fill="none" xmlns="http://www.w3.org/2000/svg">
<path d="M194.123 25.0147C194.123 26.2499 193.815 27.7941 193.198 29.3382C192.582 30.8823 191.658 32.1176 190.733 33.6617C189.809 35.2058 188.576 36.4411 187.344 37.3676C186.111 38.6029 185.187 39.5294 183.954 40.7647L181.797 42.3088V42.6176L184.262 41.9999H190.733L189.809 46.0146H175.635L176.251 43.5441C176.867 42.9264 177.792 41.9999 178.716 41.3823C179.64 40.4558 180.565 39.5294 181.489 38.6029C182.414 37.6764 183.646 36.4411 184.571 35.5147C185.495 34.5882 186.419 33.3529 187.036 32.4264C187.652 31.4999 188.268 30.2647 188.884 29.3382C189.501 28.4117 189.501 27.4852 189.501 26.5588C189.501 25.6323 189.193 25.0147 188.884 24.7058C188.576 24.0882 187.652 23.7794 186.419 23.7794C185.803 23.7794 184.879 24.0882 183.954 24.397C183.03 24.7058 182.414 25.3235 181.489 25.9411L180.257 22.5441C181.489 21.6176 182.722 20.9999 183.954 20.6911C185.187 20.3823 186.419 20.0735 188.268 20.0735C190.117 20.0735 191.349 20.6911 192.582 21.6176C193.815 21.9264 194.123 23.4705 194.123 25.0147Z" fill="#A6ABBD"/>
<path d="M214.151 38.6027H210.146L208.605 46.0144H204.291L205.832 38.6027H195.355L195.971 35.8233L210.454 19.7644H214.151L211.07 34.8968H215.076L214.151 38.6027ZM207.989 29.0292L208.913 25.9409L207.064 28.7203L202.442 33.6615L200.285 35.2056L202.442 34.8968H206.448L207.989 29.0292Z" fill="#A6ABBD"/>
<path d="M216 11.7353L214.768 12.0441L211.07 12.9706L200.594 15.1324L202.442 8.95588C187.96 4.94118 172.862 13.2794 168.548 27.7941C163.926 42.3088 171.629 57.75 185.803 63C170.705 57.75 162.077 41.3824 167.007 25.6324C171.937 10.1912 188.268 1.23529 203.675 5.86765L205.216 0L216 11.7353Z" fill="#00C368"/>
<path d="M20.4343 38.8043L14.3596 38.7882L15.0203 35.0176L20.5955 35.0338C21.3904 35.0338 22.1208 34.8941 22.7869 34.6148C23.4529 34.3248 24.0007 33.9058 24.4304 33.358C24.8601 32.8101 25.134 32.1226 25.2522 31.2955C25.3596 30.5972 25.322 29.9688 25.1394 29.4102C24.9568 28.8516 24.6345 28.4005 24.1726 28.0567C23.7107 27.713 23.1145 27.525 22.384 27.4927L17.9851 27.4766L14.5691 47.1509H9.8479L13.9084 23.69L22.5291 23.7061C24.0222 23.7383 25.3542 24.0606 26.5251 24.6729C27.696 25.2745 28.5984 26.1339 29.2322 27.251C29.8767 28.3575 30.1345 29.6949 30.0056 31.2632C29.866 32.9713 29.3342 34.3839 28.4104 35.501C27.4866 36.6182 26.321 37.4507 24.9138 37.9986C23.5173 38.5357 22.0242 38.8043 20.4343 38.8043ZM34.5657 23.69L42.8318 23.7061C44.2605 23.7276 45.5549 23.9908 46.7151 24.4957C47.886 25.0006 48.7937 25.7579 49.4382 26.7676C50.0935 27.7774 50.3674 29.0611 50.26 30.6187C50.1526 31.897 49.8411 32.9766 49.3254 33.8575C48.8206 34.7383 48.1384 35.4849 47.2791 36.0972C46.4304 36.7095 45.4529 37.2359 44.3464 37.6763L42.7029 38.4659H35.0652L35.7097 34.6954L40.9626 34.7276C41.7468 34.7169 42.4612 34.5665 43.1057 34.2764C43.7502 33.9864 44.282 33.5674 44.7009 33.0196C45.1306 32.461 45.3992 31.7842 45.5066 30.9893C45.6033 30.2911 45.5549 29.6841 45.3616 29.1685C45.179 28.6529 44.8621 28.2501 44.4109 27.96C43.9597 27.67 43.385 27.5142 42.6868 27.4927L38.6423 27.4766L35.2263 47.1509H30.5051L34.5657 23.69ZM43.3474 47.1509L39.9636 36.6934L44.717 36.6612L48.3748 46.8931V47.1509H43.3474ZM71.8518 34.7921L71.7229 35.92C71.5081 37.4239 71.1052 38.8741 70.5144 40.2706C69.9236 41.6671 69.1501 42.9132 68.1941 44.0089C67.238 45.0938 66.0994 45.9532 64.7781 46.587C63.4675 47.21 61.9797 47.5054 60.3147 47.4732C58.7249 47.441 57.3767 47.0972 56.2703 46.442C55.1746 45.7759 54.3044 44.8951 53.6599 43.7994C53.0261 42.7037 52.6018 41.4844 52.387 40.1417C52.1721 38.7882 52.1506 37.4024 52.3225 35.9844L52.4514 34.8726C52.6663 33.3687 53.0691 31.9239 53.6599 30.5382C54.2615 29.1524 55.0403 27.9171 55.9963 26.8321C56.9631 25.7364 58.1018 24.877 59.4124 24.254C60.7336 23.6309 62.2161 23.3355 63.8596 23.3677C65.4495 23.3892 66.7922 23.733 67.8879 24.399C68.9944 25.0543 69.8645 25.9298 70.4983 27.0255C71.1428 28.1104 71.5725 29.3297 71.7874 30.6832C72.0022 32.0259 72.0237 33.3956 71.8518 34.7921ZM66.9373 35.9844L67.0984 34.8243C67.1843 34.0938 67.2273 33.3043 67.2273 32.4556C67.238 31.5963 67.1414 30.7745 66.9373 29.9903C66.7332 29.1954 66.3679 28.5455 65.8416 28.0406C65.3259 27.525 64.5793 27.2457 63.6018 27.2027C62.5491 27.1705 61.6467 27.3799 60.8948 27.8311C60.1536 28.2823 59.5305 28.8946 59.0256 29.668C58.5315 30.4307 58.1394 31.2686 57.8494 32.1817C57.5701 33.084 57.366 33.9703 57.2371 34.8404L57.092 36.0006C56.9954 36.7203 56.9417 37.5152 56.9309 38.3853C56.9309 39.2447 57.033 40.0718 57.2371 40.8668C57.4412 41.6509 57.8064 42.3008 58.3328 42.8165C58.8591 43.3321 59.6111 43.6114 60.5886 43.6544C61.6306 43.6866 62.5222 43.4717 63.2634 43.0098C64.0154 42.5479 64.6438 41.9356 65.1487 41.1729C65.6536 40.3995 66.051 39.5616 66.3411 38.6592C66.6311 37.7462 66.8298 36.8546 66.9373 35.9844ZM80.3757 47.1509H75.155L75.8318 43.3804L80.5208 43.4127C81.9817 43.4127 83.2117 43.0689 84.2107 42.3814C85.2097 41.6832 85.9939 40.7701 86.5632 39.6422C87.1433 38.5035 87.5354 37.2735 87.7395 35.9522L87.8845 34.8082C87.9812 33.9918 88.0134 33.1646 87.9812 32.3267C87.949 31.4781 87.7932 30.6939 87.5139 29.9742C87.2454 29.2545 86.8157 28.669 86.2249 28.2178C85.634 27.7667 84.8337 27.525 83.824 27.4927L78.4744 27.4766L79.135 23.69L83.969 23.7061C85.5374 23.7383 86.9016 24.0606 88.0618 24.6729C89.2219 25.2745 90.1726 26.0909 90.9138 27.1221C91.655 28.1534 92.1707 29.335 92.4607 30.6671C92.7507 31.9883 92.8098 33.3795 92.6379 34.8404L92.509 35.9844C92.2942 37.5528 91.8484 39.0191 91.1716 40.3834C90.5056 41.7476 89.6409 42.94 88.5774 43.9605C87.5247 44.9703 86.3054 45.7598 84.9197 46.3292C83.5339 46.8878 82.0193 47.1617 80.3757 47.1509ZM81.9065 23.69L77.8298 47.1509H73.1086L77.1692 23.69H81.9065ZM110.572 23.69H115.277L112.635 39.1749C112.387 40.9151 111.813 42.4136 110.91 43.6705C110.019 44.9166 108.869 45.8726 107.462 46.5386C106.066 47.1939 104.492 47.5108 102.741 47.4893C101.108 47.4571 99.6848 47.1026 98.4709 46.4258C97.2678 45.7383 96.3655 44.7823 95.7639 43.5577C95.1624 42.3223 94.9636 40.8668 95.1677 39.191L97.8103 23.69H102.515L99.8889 39.2071C99.7922 40.0128 99.8191 40.754 99.9695 41.4307C100.131 42.0967 100.453 42.6392 100.936 43.0582C101.43 43.4664 102.129 43.6812 103.031 43.7027C103.987 43.7349 104.803 43.5631 105.48 43.1871C106.157 42.8111 106.699 42.2794 107.108 41.5919C107.516 40.8936 107.79 40.0933 107.929 39.191L110.572 23.69ZM129.489 39.3843L134.097 39.3199C133.893 41.0494 133.308 42.5318 132.341 43.7672C131.385 44.9918 130.182 45.9263 128.732 46.5709C127.281 47.2047 125.708 47.5054 124.01 47.4732C122.442 47.441 121.121 47.108 120.047 46.4742C118.972 45.8297 118.129 44.9703 117.517 43.8961C116.905 42.8218 116.502 41.6241 116.308 40.3028C116.115 38.9815 116.104 37.628 116.276 36.2423L116.502 34.6148C116.717 33.1539 117.109 31.7413 117.678 30.377C118.258 29.0128 119.015 27.7989 119.95 26.7354C120.885 25.6719 121.991 24.834 123.269 24.2217C124.548 23.6094 125.998 23.3194 127.62 23.3516C129.317 23.3839 130.751 23.7491 131.922 24.4473C133.104 25.1348 134.011 26.0963 134.645 27.3316C135.29 28.5562 135.65 29.9903 135.725 31.6339L131.036 31.6177C131.047 30.7476 130.939 29.9849 130.714 29.3297C130.499 28.6636 130.123 28.148 129.586 27.7828C129.049 27.4068 128.307 27.2027 127.362 27.1705C126.331 27.1382 125.455 27.3424 124.736 27.7828C124.016 28.2232 123.42 28.814 122.947 29.5552C122.485 30.2965 122.12 31.1075 121.851 31.9883C121.594 32.8692 121.4 33.734 121.271 34.5826L121.046 36.2584C120.96 36.9566 120.901 37.73 120.868 38.5787C120.836 39.4166 120.906 40.2169 121.078 40.9796C121.25 41.7423 121.583 42.376 122.077 42.8809C122.571 43.3751 123.307 43.6382 124.284 43.6705C125.251 43.7027 126.084 43.5523 126.782 43.2193C127.491 42.8863 128.066 42.3922 128.506 41.7369C128.957 41.0816 129.285 40.2974 129.489 39.3843ZM149.776 23.69L145.715 47.1509H140.994L145.071 23.69H149.776ZM156.769 23.69L156.108 27.4766H137.53L138.19 23.69H156.769Z" fill="#A6ABBD"/>
</svg>
